<svg width="79" height="71" viewBox="0 0 79 71" fill="none" xmlns="http://www.w3.org/2000/svg">
<path d="M31.2273 0H39.6818V49.9091C39.6818 54.3636 38.8636 58.1477 37.2273 61.2614C35.5909 64.375 33.2841 66.7386 30.3068 68.3523C27.3295 69.9659 23.8182 70.7727 19.7727 70.7727C15.9545 70.7727 12.5568 70.0795 9.57955 68.6932C6.60227 67.2841 4.26136 65.2841 2.55682 62.6932C0.852273 60.1023 0 57.0227 0 53.4545H8.31818C8.31818 55.4318 8.80682 57.1591 9.78409 58.6364C10.7841 60.0909 12.1477 61.2273 13.875 62.0455C15.6023 62.8636 17.5682 63.2727 19.7727 63.2727C22.2045 63.2727 24.2727 62.7614 25.9773 61.7386C27.6818 60.7159 28.9773 59.2159 29.8636 57.2386C30.7727 55.2386 31.2273 52.7955 31.2273 49.9091V0Z" fill="#CCCCCC"/>
<path d="M70.4091 0V31.0909H53.4773H43.5V38.5909H70.4091V69.8182H78.8636V0H70.4091Z" fill="#CCCCCC"/>
</svg>
